<svg xmlns="http://www.w3.org/2000/svg" width="1200" height="630" viewBox="0 0 1200 630" font-family="Comic Sans MS, Arial Black, sans-serif">
  <defs>
    <linearGradient id="bg" x1="0" y1="0" x2="1" y2="1">
      <stop offset="0%" stop-color="#000080"/>
      <stop offset="45%" stop-color="#4b0082"/>
      <stop offset="100%" stop-color="#05010f"/>
    </linearGradient>
    <linearGradient id="rb" x1="0" y1="0" x2="1" y2="0">
      <stop offset="0%" stop-color="#ff0000"/><stop offset="20%" stop-color="#ff7f00"/>
      <stop offset="40%" stop-color="#ffff00"/><stop offset="60%" stop-color="#00ff00"/>
      <stop offset="80%" stop-color="#00ffff"/><stop offset="100%" stop-color="#ff00ff"/>
    </linearGradient>
    <pattern id="zig" width="40" height="40" patternTransform="rotate(45)" patternUnits="userSpaceOnUse">
      <rect width="40" height="40" fill="none"/>
      <rect width="20" height="40" fill="#ff00ff" opacity="0.07"/>
    </pattern>
  </defs>

  <!-- фон + диагональная плитка -->
  <rect width="1200" height="630" fill="url(#bg)"/>
  <rect width="1200" height="630" fill="url(#zig)"/>

  <!-- звёзды (SVG, цветные) -->
  <g fill="#fff" opacity="0.85">
    <circle cx="80" cy="100" r="2.5"/><circle cx="260" cy="130" r="2"/><circle cx="500" cy="95" r="2"/>
    <circle cx="700" cy="110" r="2.5"/><circle cx="980" cy="100" r="2.5"/><circle cx="1120" cy="160" r="2"/>
    <circle cx="160" cy="470" r="2"/><circle cx="430" cy="560" r="2.5"/><circle cx="900" cy="540" r="2"/>
    <circle cx="1080" cy="470" r="2.5"/>
  </g>
  <g font-size="38" font-weight="bold" text-anchor="middle">
    <text x="120" y="320" fill="#00ffff">*</text>
    <text x="1080" y="320" fill="#ff00ff">*</text>
  </g>

  <!-- рамка ridge -->
  <rect x="14" y="14" width="1172" height="602" fill="none" stroke="#ff00ff" stroke-width="6"/>
  <rect x="26" y="26" width="1148" height="578" fill="none" stroke="#00ffff" stroke-width="3"/>

  <!-- бегущая строка сверху (имитация) -->
  <rect x="26" y="26" width="1148" height="48" fill="#ff0000"/>
  <text x="600" y="60" font-size="26" font-weight="bold" text-anchor="middle" fill="#ffff00">
    ★ ГЛУШАТ ИНТЕРНЕТ?! У НАС ГЛУШИЛОК НЕТ!!! ЖМИ И ОЖИВЁТ!!! ★</text>

  <!-- огонь по бокам (нарисованное SVG-пламя, не обрезается) -->
  <g transform="translate(70,300) scale(2.0)">
    <path d="M30 0 C46 24 20 30 30 48 C6 42 5 18 18 23 C11 7 27 11 30 0 Z" fill="#ff3b00"/>
    <path d="M30 14 C41 28 23 32 30 44 C15 40 16 25 25 27 C20 17 28 19 30 14 Z" fill="#ffcc00"/>
  </g>
  <g transform="translate(1010,300) scale(2.0)">
    <path d="M30 0 C46 24 20 30 30 48 C6 42 5 18 18 23 C11 7 27 11 30 0 Z" fill="#ff3b00"/>
    <path d="M30 14 C41 28 23 32 30 44 C15 40 16 25 25 27 C20 17 28 19 30 14 Z" fill="#ffcc00"/>
  </g>

  <!-- спутниковая тарелка (нарисованная) слева внизу -->
  <g transform="translate(150,505)">
    <ellipse cx="20" cy="14" rx="26" ry="13" fill="#c0c0c0" stroke="#888" stroke-width="2" transform="rotate(-25 20 14)"/>
    <circle cx="20" cy="14" r="4" fill="#ff0000"/>
    <line x1="20" y1="14" x2="34" y2="0" stroke="#888" stroke-width="3"/>
    <rect x="14" y="26" width="12" height="22" fill="#888"/>
    <g stroke="#ffff00" stroke-width="2" fill="none" opacity="0.9">
      <path d="M40 -4 a10 10 0 0 1 8 8"/><path d="M44 -8 a16 16 0 0 1 12 12"/>
    </g>
  </g>

  <!-- пачка денег справа внизу (нарисованная) -->
  <g transform="translate(975,505)">
    <rect x="0" y="6" width="56" height="34" rx="3" fill="#2e8b57" stroke="#0a3" stroke-width="2"/>
    <rect x="5" y="0" width="56" height="34" rx="3" fill="#3cb371" stroke="#0a3" stroke-width="2"/>
    <circle cx="33" cy="17" r="10" fill="none" stroke="#eaffea" stroke-width="2"/>
    <text x="33" y="23" font-size="16" font-weight="bold" text-anchor="middle" fill="#eaffea">₽</text>
  </g>

  <!-- главный заголовок -->
  <text x="600" y="240" font-size="118" font-weight="bold" text-anchor="middle"
        fill="#ffff00" stroke="#ff0000" stroke-width="4" paint-order="stroke">ГЛУШИЛОК<tspan fill="#00ff00">.NET</tspan></text>

  <!-- радужный слоган -->
  <text x="600" y="320" font-size="50" font-weight="bold" text-anchor="middle" fill="url(#rb)">
    ★彡 ГЛУШИЛОК НЕТ! 彡★</text>

  <!-- жёлтая плашка-обещание -->
  <rect x="190" y="360" width="820" height="64" rx="6" fill="#ffff00" stroke="#cc0000" stroke-width="4" stroke-dasharray="10 6"/>
  <text x="600" y="403" font-size="32" font-weight="bold" text-anchor="middle" fill="#cc0000">
    БЕСПЛАТНЫЙ ПРОКСИ + VPN ОТ 239 ₽</text>

  <!-- подпись операторы -->
  <text x="600" y="468" font-size="28" text-anchor="middle" fill="#00ffff">
    Обход глушилок и белых списков · МТС МегаФон Tele2 Билайн Yota</text>

  <!-- зелёная кнопка -->
  <rect x="320" y="508" width="560" height="78" rx="8" fill="#00cc00" stroke="#ffffff" stroke-width="5"/>
  <!-- белые стрелки-треугольники (по краям, не наезжают) -->
  <polygon points="345,531 345,563 369,547" fill="#ffffff"/>
  <polygon points="855,531 855,563 831,547" fill="#ffffff"/>
  <text x="600" y="560" font-size="36" font-weight="bold" text-anchor="middle" fill="#ffffff" stroke="#003300" stroke-width="1">
    ВКЛЮЧИТЬ ПРОКСИ</text>
</svg>
