<svg xmlns="http://www.w3.org/2000/svg" width="540" height="360" viewBox="0 0 540 360" font-family="'MS Sans Serif',Tahoma,sans-serif">
  <rect x="0" y="0" width="540" height="360" fill="#c0c0c0"/>
  <rect x="0" y="0" width="540" height="360" fill="none" stroke="#000" stroke-width="2"/>
  <rect x="2" y="2" width="536" height="356" fill="none" stroke="#dfdfdf" stroke-width="2"/>
  <rect x="5" y="5" width="530" height="26" fill="#000080"/>
  <text x="13" y="23" fill="#fff" font-size="14" font-weight="bold">3X-UI — панель управления (Xray)</text>
  <rect x="490" y="9" width="18" height="18" fill="#c0c0c0" stroke="#000"/><text x="495" y="23" font-size="12">_</text>
  <rect x="510" y="9" width="18" height="18" fill="#c0c0c0" stroke="#000"/><text x="514" y="22" font-size="11">×</text>
  <!-- адресная строка браузера -->
  <rect x="10" y="36" width="520" height="22" fill="#fff" stroke="#808080"/>
  <text x="16" y="51" font-size="12" fill="#333">http://123.45.67.89:2053/panel/inbounds</text>
  <!-- тулбар -->
  <rect x="10" y="62" width="520" height="28" fill="#d4d0c8" stroke="#808080"/>
  <text x="18" y="81" font-size="13" fill="#000">Overview   ▸ Inbounds   Settings   Logs</text>
  <!-- статус-карточки -->
  <rect x="14" y="98" width="160" height="46" fill="#e8ffe8" stroke="#008000" stroke-width="2"/>
  <text x="24" y="116" font-size="11" fill="#006000">Состояние</text>
  <text x="24" y="135" font-size="15" fill="#008000" font-weight="bold">● Running</text>
  <rect x="190" y="98" width="160" height="46" fill="#fff" stroke="#808080" stroke-width="2"/>
  <text x="200" y="116" font-size="11" fill="#555">Клиентов</text>
  <text x="200" y="135" font-size="15" fill="#000" font-weight="bold">42 онлайн</text>
  <rect x="366" y="98" width="160" height="46" fill="#fff" stroke="#808080" stroke-width="2"/>
  <text x="376" y="116" font-size="11" fill="#555">Трафик</text>
  <text x="376" y="135" font-size="15" fill="#000" font-weight="bold">1.8 TB</text>
  <!-- таблица inbounds -->
  <rect x="14" y="156" width="512" height="186" fill="#fff" stroke="#808080" stroke-width="2"/>
  <rect x="16" y="158" width="508" height="24" fill="#000080"/>
  <text x="24" y="175" fill="#fff" font-size="12">Протокол    Порт    Маскировка(SNI)        Статус</text>
  <text x="24" y="204" fill="#000" font-size="12">VLESS       443     www.microsoft.com      ● вкл</text>
  <line x1="16" y1="214" x2="524" y2="214" stroke="#ddd"/>
  <text x="24" y="234" fill="#000" font-size="12">VLESS       8443    www.apple.com          ● вкл</text>
  <line x1="16" y1="244" x2="524" y2="244" stroke="#ddd"/>
  <text x="24" y="264" fill="#000" font-size="12">Trojan      2087    cloudflare.com         ● вкл</text>
  <line x1="16" y1="274" x2="524" y2="274" stroke="#ddd"/>
  <text x="24" y="294" fill="#000" font-size="12">Hysteria2   36712   —                      ● вкл</text>
  <!-- кнопки -->
  <rect x="24" y="308" width="150" height="26" fill="#c0c0c0" stroke="#000"/>
  <rect x="26" y="310" width="146" height="22" fill="none" stroke="#fff"/>
  <text x="42" y="325" font-size="12" font-weight="bold">+ Добавить inbound</text>
  <rect x="186" y="308" width="120" height="26" fill="#c0c0c0" stroke="#000"/>
  <rect x="188" y="310" width="116" height="22" fill="none" stroke="#fff"/>
  <text x="202" y="325" font-size="12">QR / ссылка</text>
</svg>
