<svg xmlns="http://www.w3.org/2000/svg" width="540" height="360" viewBox="0 0 540 360" font-family="'MS Sans Serif',sans-serif">
  <rect x="0" y="0" width="540" height="360" fill="#c0c0c0"/>
  <rect x="2" y="2" width="536" height="356" fill="none" stroke="#dfdfdf" stroke-width="2"/>
  <rect x="0" y="0" width="540" height="360" fill="none" stroke="#000" stroke-width="2"/>
  <rect x="5" y="5" width="530" height="26" fill="#000080"/>
  <text x="13" y="23" fill="#fff" font-size="14" font-weight="bold">VPN на роутере — обход для всего дома</text>
  <rect x="490" y="9" width="18" height="18" fill="#c0c0c0" stroke="#000"/><text x="495" y="23" font-size="12">_</text>
  <rect x="510" y="9" width="18" height="18" fill="#c0c0c0" stroke="#000"/><text x="514" y="22" font-size="11">×</text>
  <rect x="14" y="40" width="512" height="246" fill="#fff" stroke="#808080"/>
  <!-- роутер -->
  <rect x="220" y="150" width="100" height="44" rx="6" fill="#222"/>
  <circle cx="240" cy="172" r="4" fill="#0f0"/><circle cx="256" cy="172" r="4" fill="#0f0"/><circle cx="272" cy="172" r="4" fill="#ff0"/>
  <line x1="238" y1="150" x2="232" y2="120" stroke="#222" stroke-width="3"/><line x1="302" y1="150" x2="308" y2="120" stroke="#222" stroke-width="3"/>
  <text x="270" y="214" font-size="12" text-anchor="middle" fill="#000080" font-weight="bold">Keenetic / OpenWrt + VLESS</text>
  <!-- облако VPN сверху -->
  <ellipse cx="270" cy="70" rx="70" ry="26" fill="#cfe0f0" stroke="#000080"/>
  <text x="270" y="75" font-size="13" text-anchor="middle" fill="#000080" font-weight="bold">VLESS Reality</text>
  <line x1="270" y1="96" x2="270" y2="150" stroke="#000080" stroke-width="2" stroke-dasharray="4"/>
  <!-- устройства -->
  <g fill="#333">
    <rect x="40" y="240" width="60" height="40" rx="3"/><text x="70" y="296" font-size="11" text-anchor="middle" fill="#000">Smart TV</text>
    <rect x="160" y="244" width="26" height="40" rx="4"/><text x="173" y="300" font-size="11" text-anchor="middle" fill="#000">Телефон</text>
    <rect x="350" y="244" width="44" height="32" rx="3"/><text x="372" y="296" font-size="11" text-anchor="middle" fill="#000">Ноутбук</text>
    <rect x="450" y="246" width="34" height="34" rx="3"/><text x="467" y="296" font-size="11" text-anchor="middle" fill="#000">Приставка</text>
  </g>
  <line x1="230" y1="190" x2="80" y2="240" stroke="#0a0" stroke-width="2"/>
  <line x1="255" y1="194" x2="173" y2="244" stroke="#0a0" stroke-width="2"/>
  <line x1="290" y1="194" x2="372" y2="244" stroke="#0a0" stroke-width="2"/>
  <line x1="312" y1="190" x2="467" y2="246" stroke="#0a0" stroke-width="2"/>
  <rect x="10" y="292" width="520" height="58" fill="#c0c0c0" stroke="#808080"/>
  <text x="22" y="312" fill="#000" font-size="13" font-weight="bold">✔ Настроил один раз — работает на всех устройствах</text>
  <text x="22" y="332" fill="#000080" font-size="12">Smart-маршрутизация: рос-сайты напрямую, зарубежные — через VPN</text>
</svg>
