<svg xmlns="http://www.w3.org/2000/svg" width="520" height="280" viewBox="0 0 520 280" font-family="Tahoma, sans-serif">
  <rect x="2" y="2" width="516" height="276" fill="#c0c0c0" stroke="#000" stroke-width="2"/>
  <rect x="2" y="2" width="514" height="2" fill="#ffffff"/>
  <rect x="2" y="2" width="2" height="274" fill="#ffffff"/>
  <rect x="2" y="274" width="514" height="2" fill="#808080"/>
  <rect x="514" y="2" width="2" height="274" fill="#808080"/>
  <defs>
    <linearGradient id="t2" x1="0" y1="0" x2="1" y2="0">
      <stop offset="0%" stop-color="#000080"/><stop offset="100%" stop-color="#1084d0"/>
    </linearGradient>
  </defs>
  <rect x="8" y="8" width="504" height="26" fill="url(#t2)"/>
  <text x="16" y="26" font-size="15" font-weight="bold" fill="#ffffff">➕ Добавить профиль из буфера</text>
  <rect x="478" y="11" width="22" height="18" fill="#c0c0c0" stroke="#000" stroke-width="1"/>
  <text x="483" y="25" font-size="13" font-weight="bold">×</text>
  <!-- текст -->
  <text x="24" y="64" font-size="13" fill="#000">Вставьте ссылку-подписку (vless://...) или нажмите:</text>
  <!-- поле ввода -->
  <rect x="24" y="78" width="472" height="30" fill="#ffffff" stroke="#808080" stroke-width="2"/>
  <text x="32" y="98" font-size="12" font-family="Courier New, monospace" fill="#000">vless://...@glushilok.net:443?security=reality...</text>
  <!-- кнопки -->
  <rect x="24" y="124" width="230" height="48" fill="#c0c0c0" stroke="#000" stroke-width="2"/>
  <rect x="24" y="124" width="228" height="2" fill="#ffffff"/>
  <rect x="24" y="124" width="2" height="46" fill="#ffffff"/>
  <text x="139" y="153" font-size="15" font-weight="bold" text-anchor="middle">📋 ИЗ БУФЕРА</text>
  <rect x="266" y="124" width="230" height="48" fill="#c0c0c0" stroke="#000" stroke-width="2"/>
  <rect x="266" y="124" width="228" height="2" fill="#ffffff"/>
  <text x="381" y="153" font-size="15" font-weight="bold" text-anchor="middle">📷 QR-КОД</text>
  <!-- список профилей -->
  <rect x="24" y="186" width="472" height="74" fill="#ffffff" stroke="#808080" stroke-width="2"/>
  <text x="34" y="208" font-size="13" font-weight="bold" fill="#008000">✓ glushilok — VLESS Reality</text>
  <text x="34" y="230" font-size="12" fill="#444">Германия · Финляндия · Нидерланды · 15+ стран</text>
  <text x="34" y="250" font-size="12" fill="#444">Обновлено: сегодня</text>
</svg>
